<svg xmlns="http://www.w3.org/2000/svg" version="1.1" xmlns:xlink="http://www.w3.org/1999/xlink" width="512" height="512" x="0" y="0" viewBox="0 0 512 512" style="enable-background:new 0 0 512 512" xml:space="preserve" class=""><g><path fill-rule="evenodd" d="M181.612 263.433a65.011 65.011 0 1 1 65-65.01 65.089 65.089 0 0 1-65 65.01zm41.552 235.919h-83.055a45.577 45.577 0 0 1-45.5-43.63h174.006a45.534 45.534 0 0 1-45.451 43.63zm70.2-79.509a23.627 23.627 0 0 1-23.592 23.592H93.454a23.588 23.588 0 1 1 0-47.175H269.77a23.618 23.618 0 0 1 23.592 23.583zm-198.8-35.87H175.5V275.455a77.274 77.274 0 0 1 0-154.064V12.648C78.192 15.893 0 96.068 0 194.154a181.6 181.6 0 0 0 79.732 150.357 32.947 32.947 0 0 1 14.83 28.025v11.437zm228.217-163.822v-43.466l-25.615-3.145a6.123 6.123 0 0 1-5.2-4.525 114.411 114.411 0 0 0-11.555-27.822 6.155 6.155 0 0 1 .481-6.859l15.889-20.346-30.718-30.739L245.7 99.14a6.088 6.088 0 0 1-6.837.471 113.827 113.827 0 0 0-27.83-11.528 6.161 6.161 0 0 1-4.525-5.193l-3.178-25.62h-15.555v64.121a77.274 77.274 0 0 1 0 154.064v64.109h15.552l3.178-25.619a6.144 6.144 0 0 1 4.525-5.182 113.835 113.835 0 0 0 27.83-11.529 6.076 6.076 0 0 1 6.837.471l20.366 15.895 30.718-30.739-15.889-20.347a6.173 6.173 0 0 1-.481-6.87 114.047 114.047 0 0 0 11.555-27.819 6.111 6.111 0 0 1 5.2-4.516l25.615-3.155zm85.75-92.913h-76.747a6.144 6.144 0 1 0 0 12.287h77.469c5.345 0 9.244-3.339 11.6-9.912l16.181-45.053a29.8 29.8 0 0 0 4.334.316 30.664 30.664 0 1 0-15.889-4.463L409.3 125.467a11.3 11.3 0 0 1-.771 1.771zm32.837 184.73a31.134 31.134 0 0 0-4.334.309l-16.177-45.045c-2.36-6.584-6.259-9.911-11.6-9.911h-77.473a6.144 6.144 0 1 0 0 12.287h76.747a10.347 10.347 0 0 1 .771 1.771l16.177 45.054a30.6 30.6 0 1 0 15.889-4.465zM335.058 197.4v2.044a5.132 5.132 0 0 0 5.123 5.123h111.2a30.626 30.626 0 1 0 0-12.29h-111.2a5.132 5.132 0 0 0-5.123 5.123z" fill="#FFDFAF" opacity="1" class="">
</path>
</g>
</svg>