<svg xmlns="http://www.w3.org/2000/svg" version="1.1" xmlns:xlink="http://www.w3.org/1999/xlink" width="512" height="512" x="0" y="0" viewBox="0 0 512 512" style="enable-background:new 0 0 512 512" xml:space="preserve" class="">
<g>
<g data-name="15-give">
<path d="M346.328 244.727c-12.449-10.834-29.363-11.66-46.328-2.6-16.965-9.056-33.879-8.231-46.328 2.6-13.417 11.677-17.58 32.273-9.684 47.91 12.263 24.282 45.6 46.932 49.365 49.435a12 12 0 0 0 13.294 0c3.762-2.5 37.1-25.153 49.365-49.435 7.896-15.637 3.733-36.237-9.684-47.91zM311.788 401c-20.651 10.713-34.767 20.239-44 27.411l33.283 3.1c6.36-6.226 19.706-17.563 43.958-31.426-8.35-3.894-19.943-5.985-33.241.915z" fill="#FFDFAF" opacity="1" data-original="#FFDFAF" class=""></path>
<path d="M404.537 405.833c-8.14-5.615-22.529-11.781-39.776-2.833-44.894 23.291-58.969 41-58.969 41l-85.957-8-63.967-56 62.968 14c31.94 7.1 45.231-20.525 50.252-32.5a7.982 7.982 0 0 0-5.243-10.734L140.935 316.3a7.987 7.987 0 0 0-2.158-.3H4v120h38.4a7.993 7.993 0 0 1 2.954.566l157.828 62.771a7.987 7.987 0 0 0 3.456.55l122.13-7.7a7.991 7.991 0 0 0 5.151-2.327l71.742-71.779a8.005 8.005 0 0 0-1.124-12.248zM206.414 204.286c9.193-.517 20.4-4.155 28.854-16.522 13.132-19.2 21.067-34.271 25.818-44.958l-30.794 13.006c-2.661 8.493-9.061 24.788-23.878 48.474z" fill="#FFDFAF" opacity="1" data-original="#FFDFAF" class=""></path>
<path d="M456.108 29.564a7.994 7.994 0 0 1-2.87.9l-168.753 19.3a7.982 7.982 0 0 0-3.305 1.15L177.2 115.433a7.994 7.994 0 0 0-3.439 4.486l-29.285 97.168a8.006 8.006 0 0 0 6.778 10.266c9.827 1.1 25.422-.27 36.39-16.308 28.549-41.747 32.58-64.007 32.58-64.007l79.526-33.587 82.842 19.106-62.105 17.432c-31.5 8.842-30.153 39.469-28.917 52.395a7.98 7.98 0 0 0 9.694 6.98l124.6-27.732a8.011 8.011 0 0 0 2.042-.759l74.657-40.054V4.64z" fill="#FFDFAF" opacity="1" data-original="#FFDFAF" class=""></path>
</g>
</g>
</svg>