<svg xmlns="http://www.w3.org/2000/svg" version="1.1" xmlns:xlink="http://www.w3.org/1999/xlink" width="512" height="512" x="0" y="0" viewBox="0 0 489.183 489.183" style="enable-background:new 0 0 512 512" xml:space="preserve" class="">
<g>
<path d="M487.106 259.27a15.753 15.753 0 0 0-13.678-7.918h-3.219L411.005 56.795c-4.736-15.562-20.915-24.607-36.652-20.492l-104.48 27.322V30.391c0-13.967-11.317-25.284-25.283-25.284-13.966 0-25.283 11.317-25.283 25.284V76.9l-111.262 28.928a40.322 40.322 0 0 0-28.349 27.077C62.657 187.792 18.954 329.07 18.954 329.07h-3.203a15.756 15.756 0 0 0-13.67 7.926 15.739 15.739 0 0 0 .09 15.801c19.045 32.304 54.188 53.99 94.409 53.99 40.22 0 75.354-21.679 94.399-53.99a15.739 15.739 0 0 0 .106-15.81 15.753 15.753 0 0 0-13.679-7.917h-3.217l-61.611-198.008 106.728-28.022v330.47h-75.848c-13.966 0-25.283 11.316-25.283 25.283 0 13.966 11.317 25.282 25.283 25.282h202.263c13.966 0 25.283-11.316 25.283-25.282 0-13.967-11.317-25.283-25.283-25.283h-75.849V89.763l103.881-27.267-58.78 188.856h-3.202a15.745 15.745 0 0 0-13.579 23.728c19.043 32.303 54.186 53.989 94.406 53.989s75.355-21.678 94.398-53.989a15.727 15.727 0 0 0 .11-15.81zm-339.392 69.8H45.439l51.142-164.339 51.133 164.339zm193.744-77.717L392.6 87.015l51.134 164.338H341.458z" fill="#FFDFAF" opacity="1" data-original="#FFDFAF" class="">
</path>
</g>
</svg>